<svg width="38" height="31" viewBox="0 0 38 31" fill="none" xmlns="http://www.w3.org/2000/svg">
<path d="M19.9267 19.6639C19.9351 19.7189 19.9691 19.7666 20.0184 19.7924C20.0677 19.8182 20.1263 19.819 20.1763 19.7945L27.4536 16.222C27.4997 16.1994 27.5336 16.1575 27.546 16.1076C27.6379 15.7391 27.6676 15.3737 27.6676 14.9796C27.6676 14.5439 27.6072 14.1466 27.5488 13.7952C27.5396 13.7394 27.5038 13.6916 27.453 13.6668L20.1757 10.1294C20.1261 10.1054 20.0681 10.1061 20.0192 10.1314C19.9703 10.1566 19.9362 10.2035 19.9271 10.2578L19.9261 10.2643C19.8984 10.4308 19.8681 10.6128 19.8666 10.7974C19.8374 10.9837 19.8374 11.1998 19.8375 11.3981V11.4072C19.8375 11.4813 19.8446 11.5626 19.8513 11.6383L19.8527 11.6545C19.86 11.7381 19.8666 11.8186 19.8666 11.8975C19.8666 11.9071 19.8674 11.9167 19.8689 11.9262C19.8816 12.0024 19.8883 12.0795 19.8954 12.1605L19.8963 12.171C19.9035 12.2525 19.9114 12.3416 19.9284 12.4234C19.9399 12.4783 19.977 12.5244 20.0283 12.5473L25.4124 14.9478L20.0258 17.4481C19.9758 17.4713 19.9397 17.5168 19.9284 17.5709C19.8992 17.7118 19.8682 17.8946 19.8666 18.0823C19.8374 18.2669 19.8375 18.4502 19.8375 18.6491V18.6571C19.8375 18.9491 19.8678 19.2737 19.9267 19.6639Z" fill="#FD5B4F"/>
<path fill-rule="evenodd" clip-rule="evenodd" d="M17.5118 6.39127C17.5611 6.41707 17.5952 6.46482 17.6035 6.51984C17.6624 6.91003 17.6928 7.23459 17.6928 7.52659V7.53468C17.6928 7.73358 17.6928 7.91682 17.6636 8.10138C17.6621 8.28907 17.6311 8.47194 17.6018 8.61281C17.5906 8.66685 17.5544 8.71239 17.5044 8.73563L12.1179 11.2359L17.502 13.6364C17.5532 13.6593 17.5904 13.7054 17.6018 13.7603C17.6188 13.8421 17.6268 13.9312 17.6339 14.0126L17.6348 14.0231C17.6419 14.1042 17.6486 14.1812 17.6613 14.2575C17.6629 14.267 17.6637 14.2766 17.6637 14.2862C17.6637 14.3651 17.6702 14.4456 17.6775 14.5292L17.679 14.5453C17.6856 14.6211 17.6928 14.7024 17.6928 14.7765V14.7856C17.6928 14.984 17.6928 15.2 17.6636 15.3862C17.6621 15.5709 17.6318 15.7529 17.6042 15.9194L17.6031 15.9259C17.594 15.9802 17.5599 16.0271 17.511 16.0523C17.4621 16.0776 17.4041 16.0783 17.3546 16.0542L10.0773 12.5168C10.0264 12.4921 9.99065 12.4443 9.98138 12.3885C9.92297 12.0371 9.86258 11.6398 9.86258 11.2041C9.86258 10.81 9.89233 10.4446 9.9842 10.0761C9.99665 10.0262 10.0305 9.98431 10.0767 9.96164L17.354 6.38922C17.4039 6.36471 17.4625 6.36547 17.5118 6.39127Z" fill="#FD5B4F"/>
<path fill-rule="evenodd" clip-rule="evenodd" d="M33.6024 0H3.92756C1.75843 0 0 1.75843 0 3.92756V22.2562C0 24.4253 1.75843 26.1837 3.92756 26.1837H33.6024C35.7716 26.1837 37.53 24.4253 37.53 22.2562V3.92756C37.53 1.75843 35.7716 0 33.6024 0ZM2.18198 3.92756C2.18198 2.9635 2.9635 2.18198 3.92756 2.18198H33.6024C34.5665 2.18198 35.348 2.9635 35.348 3.92756V22.2562C35.348 23.2202 34.5665 24.0017 33.6024 24.0017H3.92756C2.9635 24.0017 2.18198 23.2202 2.18198 22.2562V3.92756Z" fill="#FD5B4F"/>
<path d="M4.14576 28.3657C3.54322 28.3657 3.05477 28.8541 3.05477 29.4567C3.05477 30.0592 3.54322 30.5477 4.14576 30.5477H33.3843C33.9868 30.5477 34.4752 30.0592 34.4752 29.4567C34.4752 28.8541 33.9868 28.3657 33.3843 28.3657H4.14576Z" fill="#FD5B4F"/>
</svg>
