<svg width="87" height="32" viewBox="0 0 87 32" fill="none" xmlns="http://www.w3.org/2000/svg">
<path d="M5.64521 13.441V11.3672C6.27246 11.3672 6.8613 11.252 7.41174 11.0216C7.96218 10.7784 8.44221 10.4456 8.85184 10.0231C9.26147 9.6007 9.5815 9.10786 9.81191 8.54462C10.0423 7.98138 10.1575 7.37334 10.1575 6.72049C10.1575 6.06764 10.0423 5.4596 9.81191 4.89636C9.5815 4.33312 9.26147 3.84028 8.85184 3.41785C8.44221 2.99542 7.96218 2.66899 7.41174 2.43858C6.8613 2.19536 6.27246 2.07375 5.64521 2.07375V0C6.96371 0 8.12859 0.288021 9.13986 0.864063C10.1639 1.4273 10.964 2.21456 11.54 3.22584C12.1289 4.23711 12.4233 5.40199 12.4233 6.72049C12.4233 8.02618 12.1289 9.18467 11.54 10.1959C10.964 11.2072 10.1639 12.0009 9.13986 12.5769C8.12859 13.153 6.96371 13.441 5.64521 13.441ZM2.86101 13.441V11.3672H5.64521V13.441H2.86101ZM1.4209 13.441V0H3.64827V13.441H1.4209ZM2.86101 2.07375V0H5.64521V2.07375H2.86101Z" fill="white"/>
<path d="M18.3817 13.6714C17.4473 13.6714 16.6152 13.4602 15.8856 13.0377C15.1559 12.6025 14.5863 12.0073 14.1766 11.252C13.767 10.4968 13.5622 9.6263 13.5622 8.64063C13.5622 7.65496 13.7734 6.78449 14.1958 6.02924C14.6183 5.27398 15.1943 4.68514 15.924 4.26271C16.6536 3.82748 17.4985 3.60986 18.4585 3.60986C19.3034 3.60986 20.0715 3.83388 20.7627 4.28191C21.454 4.71714 21.998 5.35079 22.3948 6.18285C22.8045 7.01491 23.0093 8.00698 23.0093 9.15907H20.8395C20.8523 8.32701 20.7563 7.64216 20.5515 7.10452C20.3595 6.56688 20.0779 6.17005 19.7066 5.91403C19.3354 5.64521 18.8938 5.5108 18.3817 5.5108C17.8441 5.5108 17.3833 5.63241 16.9992 5.87563C16.628 6.11885 16.34 6.47727 16.1352 6.95091C15.9304 7.41174 15.828 7.99418 15.828 8.69823C15.828 9.32548 15.9496 9.86312 16.1928 10.3112C16.436 10.7592 16.7624 11.1048 17.172 11.348C17.5945 11.5784 18.0617 11.6937 18.5738 11.6937C19.137 11.6937 19.6042 11.5656 19.9755 11.3096C20.3467 11.0408 20.6347 10.7016 20.8395 10.2919L22.8173 11.1368C22.5484 11.6488 22.2092 12.0969 21.7996 12.4809C21.39 12.8649 20.8971 13.1594 20.3211 13.3642C19.745 13.569 19.0986 13.6714 18.3817 13.6714ZM14.9639 9.15907L14.9831 7.45014H21.8956V9.15907H14.9639Z" fill="white"/>
<path d="M27.1178 13.441L30.862 3.84028H33.0894L29.1339 13.441H27.1178ZM26.9642 13.441L22.9895 3.84028H25.1976L28.9611 13.441H26.9642Z" fill="white"/>
<path d="M38.1839 13.6714C37.2495 13.6714 36.4174 13.4602 35.6877 13.0377C34.9581 12.6025 34.3885 12.0073 33.9788 11.252C33.5692 10.4968 33.3644 9.6263 33.3644 8.64063C33.3644 7.65496 33.5756 6.78449 33.998 6.02924C34.4205 5.27398 34.9965 4.68514 35.7261 4.26271C36.4558 3.82748 37.3007 3.60986 38.2607 3.60986C39.1056 3.60986 39.8736 3.83388 40.5649 4.28191C41.2561 4.71714 41.8002 5.35079 42.197 6.18285C42.6066 7.01491 42.8115 8.00698 42.8115 9.15907H40.6417C40.6545 8.32701 40.5585 7.64216 40.3537 7.10452C40.1617 6.56688 39.8801 6.17005 39.5088 5.91403C39.1376 5.64521 38.696 5.5108 38.1839 5.5108C37.6463 5.5108 37.1855 5.63241 36.8014 5.87563C36.4302 6.11885 36.1422 6.47727 35.9374 6.95091C35.7325 7.41174 35.6301 7.99418 35.6301 8.69823C35.6301 9.32548 35.7518 9.86312 35.995 10.3112C36.2382 10.7592 36.5646 11.1048 36.9742 11.348C37.3967 11.5784 37.8639 11.6937 38.3759 11.6937C38.9392 11.6937 39.4064 11.5656 39.7776 11.3096C40.1489 11.0408 40.4369 10.7016 40.6417 10.2919L42.6194 11.1368C42.3506 11.6488 42.0114 12.0969 41.6018 12.4809C41.1921 12.8649 40.6993 13.1594 40.1233 13.3642C39.5472 13.569 38.9008 13.6714 38.1839 13.6714ZM34.7661 9.15907L34.7853 7.45014H41.6978V9.15907H34.7661Z" fill="white"/>
<path d="M44.1848 13.441L44.204 0H46.3546L46.3354 13.441H44.1848Z" fill="white"/>
<path d="M52.9081 13.6714C51.9352 13.6714 51.0712 13.4602 50.3159 13.0377C49.5735 12.6025 48.991 12.0073 48.5686 11.252C48.1461 10.4968 47.9349 9.6263 47.9349 8.64063C47.9349 7.65496 48.1397 6.78449 48.5494 6.02924C48.9718 5.27398 49.5542 4.68514 50.2967 4.26271C51.052 3.82748 51.9096 3.60986 52.8697 3.60986C53.8426 3.60986 54.7002 3.82748 55.4427 4.26271C56.1851 4.68514 56.7676 5.27398 57.19 6.02924C57.6124 6.78449 57.8237 7.65496 57.8237 8.64063C57.8237 9.6263 57.6124 10.4968 57.19 11.252C56.7676 12.0073 56.1851 12.6025 55.4427 13.0377C54.713 13.4602 53.8682 13.6714 52.9081 13.6714ZM52.9081 11.5976C53.4201 11.5976 53.8682 11.476 54.2522 11.2328C54.649 10.9768 54.9562 10.6248 55.1739 10.1767C55.4043 9.72871 55.5195 9.21667 55.5195 8.64063C55.5195 8.06459 55.4043 7.55255 55.1739 7.10452C54.9562 6.65649 54.6426 6.31086 54.233 6.06764C53.8362 5.81162 53.3817 5.68361 52.8697 5.68361C52.3577 5.68361 51.9032 5.81162 51.5064 6.06764C51.1096 6.31086 50.7959 6.65649 50.5655 7.10452C50.3479 7.55255 50.2391 8.06459 50.2391 8.64063C50.2391 9.21667 50.3479 9.72871 50.5655 10.1767C50.7959 10.6248 51.1096 10.9768 51.5064 11.2328C51.916 11.476 52.3833 11.5976 52.9081 11.5976Z" fill="white"/>
<path d="M59.4889 17.2813V3.84028H61.5051L61.6395 5.60681V17.2813H59.4889ZM64.6733 13.6714C63.8668 13.6714 63.1692 13.4666 62.5804 13.0569C62.0043 12.6345 61.5627 12.0457 61.2555 11.2904C60.9482 10.5352 60.7946 9.6519 60.7946 8.64063C60.7946 7.61655 60.9482 6.73329 61.2555 5.99084C61.5627 5.23558 62.0043 4.65314 62.5804 4.24351C63.1692 3.82108 63.8668 3.60986 64.6733 3.60986C65.5438 3.60986 66.299 3.82108 66.9391 4.24351C67.5919 4.65314 68.0976 5.23558 68.456 5.99084C68.8272 6.73329 69.0128 7.61655 69.0128 8.64063C69.0128 9.6519 68.8272 10.5352 68.456 11.2904C68.0976 12.0457 67.5919 12.6345 66.9391 13.0569C66.299 13.4666 65.5438 13.6714 64.6733 13.6714ZM64.1357 11.7129C64.6477 11.7129 65.1021 11.5848 65.499 11.3288C65.8958 11.06 66.2094 10.6952 66.4398 10.2343C66.6831 9.77351 66.8047 9.24227 66.8047 8.64063C66.8047 8.03899 66.6895 7.50775 66.459 7.04691C66.2414 6.58608 65.9342 6.22765 65.5374 5.97163C65.1405 5.71562 64.6797 5.58761 64.1549 5.58761C63.6684 5.58761 63.2332 5.71562 62.8492 5.97163C62.4651 6.22765 62.1643 6.58608 61.9467 7.04691C61.7419 7.50775 61.6395 8.03899 61.6395 8.64063C61.6395 9.24227 61.7419 9.77351 61.9467 10.2343C62.1643 10.6952 62.4587 11.06 62.83 11.3288C63.214 11.5848 63.6492 11.7129 64.1357 11.7129Z" fill="white"/>
<path d="M74.8631 13.6714C73.9286 13.6714 73.0966 13.4602 72.3669 13.0377C71.6373 12.6025 71.0676 12.0073 70.658 11.252C70.2484 10.4968 70.0435 9.6263 70.0435 8.64063C70.0435 7.65496 70.2548 6.78449 70.6772 6.02924C71.0996 5.27398 71.6757 4.68514 72.4053 4.26271C73.135 3.82748 73.9798 3.60986 74.9399 3.60986C75.7848 3.60986 76.5528 3.83388 77.2441 4.28191C77.9353 4.71714 78.4794 5.35079 78.8762 6.18285C79.2858 7.01491 79.4906 8.00698 79.4906 9.15907H77.3209C77.3337 8.32701 77.2377 7.64216 77.0329 7.10452C76.8408 6.56688 76.5592 6.17005 76.188 5.91403C75.8168 5.64521 75.3751 5.5108 74.8631 5.5108C74.3255 5.5108 73.8646 5.63241 73.4806 5.87563C73.1094 6.11885 72.8214 6.47727 72.6165 6.95091C72.4117 7.41174 72.3093 7.99418 72.3093 8.69823C72.3093 9.32548 72.4309 9.86312 72.6741 10.3112C72.9174 10.7592 73.2438 11.1048 73.6534 11.348C74.0758 11.5784 74.5431 11.6937 75.0551 11.6937C75.6184 11.6937 76.0856 11.5656 76.4568 11.3096C76.828 11.0408 77.1161 10.7016 77.3209 10.2919L79.2986 11.1368C79.0298 11.6488 78.6906 12.0969 78.2809 12.4809C77.8713 12.8649 77.3785 13.1594 76.8024 13.3642C76.2264 13.569 75.5799 13.6714 74.8631 13.6714ZM71.4452 9.15907L71.4644 7.45014H78.377V9.15907H71.4452Z" fill="white"/>
<path d="M82.2849 8.33341C82.2849 7.29653 82.4833 6.44527 82.8801 5.77962C83.277 5.11397 83.789 4.62114 84.4162 4.30111C85.0563 3.96829 85.7219 3.80188 86.4132 3.80188V5.85643C85.8243 5.85643 85.2675 5.93963 84.7427 6.10604C84.2306 6.25966 83.8146 6.51567 83.4946 6.8741C83.1746 7.23253 83.0145 7.70616 83.0145 8.295L82.2849 8.33341ZM80.864 13.441V3.84028H83.0145V13.441H80.864Z" fill="white"/>
<path d="M10.7336 31.7696L5.4916 18.3286H7.71896L13.0954 31.7696H10.7336ZM0 31.7696L5.35719 18.3286H7.60375L2.36177 31.7696H0ZM2.51538 28.4669V26.4892H10.5608V28.4669H2.51538Z" fill="white"/>
<path d="M16.1142 29.0814L14.8085 27.6029L19.8008 22.1689H22.393L16.1142 29.0814ZM14.0596 31.7696V18.3286H16.2102V31.7696H14.0596ZM20.1657 31.7696L16.7862 26.7964L18.1879 25.2987L22.7195 31.7696H20.1657Z" fill="white"/>
<path d="M29.1341 31.7696L29.0381 26.8348C29.0381 26.182 28.9677 25.6379 28.8268 25.2027C28.686 24.7675 28.4684 24.4346 28.174 24.2042C27.8796 23.9738 27.4827 23.8586 26.9835 23.8586C26.5355 23.8586 26.1387 23.9546 25.793 24.1466C25.4474 24.3386 25.1594 24.6331 24.929 25.0299L23.0088 24.3578C23.2264 23.9354 23.5081 23.5386 23.8537 23.1674C24.1993 22.7961 24.6345 22.5017 25.1594 22.2841C25.6842 22.0537 26.3115 21.9385 27.0411 21.9385C27.9628 21.9385 28.7308 22.1113 29.3453 22.4569C29.9725 22.8025 30.4398 23.3146 30.747 23.993C31.0542 24.6715 31.2078 25.5099 31.2078 26.5084V31.7696H29.1341ZM26.4075 32C25.2682 32 24.3785 31.744 23.7385 31.2319C23.1112 30.7199 22.7976 29.9967 22.7976 29.0622C22.7976 28.0637 23.1304 27.3021 23.7961 26.7772C24.4745 26.2524 25.4154 25.99 26.6187 25.99H29.6333L29.6525 27.6413H27.2907C26.4331 27.6413 25.8314 27.7629 25.4858 28.0061C25.153 28.2365 24.9866 28.5694 24.9866 29.0046C24.9866 29.3758 25.1338 29.6702 25.4282 29.8878C25.7354 30.0927 26.1579 30.1951 26.6955 30.1951C27.1691 30.1951 27.5788 30.0863 27.9244 29.8686C28.2828 29.6382 28.558 29.3438 28.75 28.9854C28.9421 28.6142 29.0381 28.2173 29.0381 27.7949H29.8445C29.8445 29.1006 29.5629 30.1311 28.9997 30.8863C28.4492 31.6288 27.5852 32 26.4075 32Z" fill="white"/>
<path d="M39.9497 31.7696L39.8537 29.9839V18.3286H41.9851V31.7696H39.9497ZM36.8199 32C35.9494 32 35.1878 31.7952 34.5349 31.3856C33.8949 30.9631 33.3892 30.3743 33.018 29.619C32.6596 28.8638 32.4804 27.9805 32.4804 26.9692C32.4804 25.9452 32.6596 25.0619 33.018 24.3194C33.3892 23.5642 33.8949 22.9817 34.5349 22.5721C35.1878 22.1497 35.9494 21.9385 36.8199 21.9385C37.6263 21.9385 38.3176 22.1497 38.8936 22.5721C39.4825 22.9817 39.9305 23.5642 40.2377 24.3194C40.5449 25.0619 40.6986 25.9452 40.6986 26.9692C40.6986 27.9805 40.5449 28.8638 40.2377 29.619C39.9305 30.3743 39.4825 30.9631 38.8936 31.3856C38.3176 31.7952 37.6263 32 36.8199 32ZM37.3575 30.0415C37.8439 30.0415 38.2728 29.9134 38.644 29.6574C39.028 29.3886 39.3225 29.0238 39.5273 28.563C39.7449 28.1021 39.8537 27.5709 39.8537 26.9692C39.8537 26.3676 39.7449 25.8364 39.5273 25.3755C39.3225 24.9147 39.028 24.5563 38.644 24.3002C38.2728 24.0442 37.8376 23.9162 37.3383 23.9162C36.8263 23.9162 36.3718 24.0442 35.975 24.3002C35.5782 24.5563 35.2646 24.9147 35.0341 25.3755C34.8165 25.8364 34.7013 26.3676 34.6885 26.9692C34.7013 27.5709 34.8165 28.1021 35.0341 28.563C35.2646 29.0238 35.5782 29.3886 35.975 29.6574C36.3846 29.9134 36.8455 30.0415 37.3575 30.0415Z" fill="white"/>
<path d="M48.3757 32C47.4412 32 46.6091 31.7888 45.8795 31.3664C45.1498 30.9311 44.5802 30.3359 44.1706 29.5806C43.7609 28.8254 43.5561 27.9549 43.5561 26.9692C43.5561 25.9836 43.7673 25.1131 44.1898 24.3578C44.6122 23.6026 45.1882 23.0137 45.9179 22.5913C46.6475 22.1561 47.4924 21.9385 48.4525 21.9385C49.2973 21.9385 50.0654 22.1625 50.7566 22.6105C51.4479 23.0457 51.9919 23.6794 52.3888 24.5115C52.7984 25.3435 53.0032 26.3356 53.0032 27.4877H50.8335C50.8462 26.6556 50.7502 25.9708 50.5454 25.4331C50.3534 24.8955 50.0718 24.4987 49.7006 24.2426C49.3293 23.9738 48.8877 23.8394 48.3757 23.8394C47.838 23.8394 47.3772 23.961 46.9932 24.2042C46.6219 24.4474 46.3339 24.8059 46.1291 25.2795C45.9243 25.7403 45.8219 26.3228 45.8219 27.0268C45.8219 27.6541 45.9435 28.1917 46.1867 28.6398C46.4299 29.0878 46.7563 29.4334 47.166 29.6766C47.5884 29.907 48.0556 30.0223 48.5677 30.0223C49.1309 30.0223 49.5982 29.8942 49.9694 29.6382C50.3406 29.3694 50.6286 29.0302 50.8335 28.6206L52.8112 29.4654C52.5424 29.9775 52.2031 30.4255 51.7935 30.8095C51.3839 31.1935 50.8911 31.488 50.315 31.6928C49.739 31.8976 49.0925 32 48.3757 32ZM44.9578 27.4877L44.977 25.7787H51.8895V27.4877H44.9578Z" fill="white"/>
<path d="M54.3766 31.7696V22.1689H56.3927L56.5271 23.9354V31.7696H54.3766ZM60.8858 31.7696V26.854L63.0364 26.278V31.7696H60.8858ZM67.4143 31.7696V26.854L69.5457 26.278V31.7696H67.4143ZM60.8858 26.854C60.8858 26.086 60.7962 25.4971 60.617 25.0875C60.4506 24.6651 60.2074 24.3706 59.8874 24.2042C59.5801 24.0378 59.2153 23.9546 58.7929 23.9546C58.076 23.9418 57.5192 24.1786 57.1224 24.6651C56.7255 25.1515 56.5271 25.8492 56.5271 26.758H55.7207C55.7207 25.7467 55.8679 24.8827 56.1623 24.1658C56.4567 23.4362 56.8791 22.8857 57.4296 22.5145C57.98 22.1305 58.6329 21.9385 59.3881 21.9385C60.553 21.9385 61.4491 22.2969 62.0763 23.0137C62.7164 23.7178 63.0364 24.8059 63.0364 26.278L60.8858 26.854ZM67.4143 26.854C67.4143 26.086 67.3247 25.4971 67.1455 25.0875C66.9663 24.6651 66.7167 24.3706 66.3966 24.2042C66.0894 24.0378 65.731 23.9546 65.3214 23.9546C64.5917 23.9418 64.0285 24.1786 63.6316 24.6651C63.2348 25.1515 63.0364 25.8492 63.0364 26.758H62.2299C62.2299 25.7467 62.3771 24.8827 62.6716 24.1658C62.966 23.4362 63.3884 22.8857 63.9389 22.5145C64.4893 22.1305 65.1421 21.9385 65.8974 21.9385C67.0623 21.9385 67.9647 22.2969 68.6048 23.0137C69.2448 23.7178 69.5585 24.8059 69.5457 26.278L67.4143 26.854Z" fill="white"/>
<path d="M71.4907 31.7696L71.5099 22.1689H73.6413L73.6221 31.7696H71.4907ZM72.566 20.3448C72.2204 20.3448 71.9195 20.2231 71.6635 19.9799C71.4203 19.7239 71.2987 19.4231 71.2987 19.0775C71.2987 18.7318 71.4203 18.4374 71.6635 18.1942C71.9195 17.951 72.2204 17.8294 72.566 17.8294C72.9116 17.8294 73.206 17.951 73.4492 18.1942C73.7053 18.4374 73.8333 18.7318 73.8333 19.0775C73.8333 19.4231 73.7053 19.7239 73.4492 19.9799C73.206 20.2231 72.9116 20.3448 72.566 20.3448Z" fill="white"/>
<path d="M80.1697 32C79.2353 32 78.4032 31.7888 77.6735 31.3664C76.9439 30.9311 76.3743 30.3359 75.9646 29.5806C75.555 28.8254 75.3502 27.9549 75.3502 26.9692C75.3502 25.9836 75.5614 25.1131 75.9838 24.3578C76.4063 23.6026 76.9823 23.0137 77.712 22.5913C78.4416 22.1561 79.2865 21.9385 80.2465 21.9385C81.0914 21.9385 81.8595 22.1625 82.5507 22.6105C83.242 23.0457 83.786 23.6794 84.1828 24.5115C84.5925 25.3435 84.7973 26.3356 84.7973 27.4877H82.6275C82.6403 26.6556 82.5443 25.9708 82.3395 25.4331C82.1475 24.8955 81.8659 24.4987 81.4946 24.2426C81.1234 23.9738 80.6818 23.8394 80.1697 23.8394C79.6321 23.8394 79.1713 23.961 78.7872 24.2042C78.416 24.4474 78.128 24.8059 77.9232 25.2795C77.7184 25.7403 77.6159 26.3228 77.6159 27.0268C77.6159 27.6541 77.7375 28.1917 77.9808 28.6398C78.224 29.0878 78.5504 29.4334 78.96 29.6766C79.3825 29.907 79.8497 30.0223 80.3617 30.0223C80.925 30.0223 81.3922 29.8942 81.7634 29.6382C82.1347 29.3694 82.4227 29.0302 82.6275 28.6206L84.6053 29.4654C84.3364 29.9775 83.9972 30.4255 83.5876 30.8095C83.1779 31.1935 82.6851 31.488 82.1091 31.6928C81.533 31.8976 80.8866 32 80.1697 32ZM76.7519 27.4877L76.7711 25.7787H83.6836V27.4877H76.7519Z" fill="white"/>
</svg>
